<?xml version="1.0" encoding="utf-8"?>
<!-- Generator: Adobe Illustrator 17.1.0, SVG Export Plug-In . SVG Version: 6.00 Build 0)  -->
<!DOCTYPE svg PUBLIC "-//W3C//DTD SVG 1.1//EN" "http://www.w3.org/Graphics/SVG/1.1/DTD/svg11.dtd">
<svg version="1.1" id="Layer_1" xmlns="http://www.w3.org/2000/svg" xmlns:xlink="http://www.w3.org/1999/xlink" x="0px" y="0px"
	 viewBox="0 0 427.4 129" enable-background="new 0 0 427.4 129" xml:space="preserve">
<g>
	<path fill="#FFFFFF" d="M102,48.8c0.3,0,0.4,0,0.5,0c0.1,0.4-0.6,0.8,0,1.2c-0.5,1.1-1.1,2-2,2.8c-0.4,0.4-0.7,1-0.8,1.6
		c-0.1,0.5-0.4,0.9-0.6,1.4c-0.1,0.2-0.1,0.5-0.2,0.9c0.3-0.2,0.6-0.2,0.8-0.4c0,0.2-0.1,0.4-0.1,0.5c0,0.1,0,0.2,0.1,0.4
		c0,0.2,0.1,0.3,0.1,0.5c-0.3,0.9-0.6,1.9-0.8,2.8c0,0.1-0.1,0.2-0.2,0.4c0.2,0,0.3,0.1,0.5,0.1c-0.5,0.4-0.6,0.9-0.4,1.5
		c0.5-0.2,0.5-1,1-1.1c0.2,0.5-0.6,1.1,0,1.6c0,0.1-0.1,0.2-0.1,0.3c0,0,0,0.1,0.1,0.1c0.2-0.1,0.4-0.2,0.7-0.3
		c-0.1,0.5-0.3,1-0.4,1.5c0.4,0,0.8-0.1,1.1-0.1c0,0,0,0,0,0c-0.2,0.3-0.3,0.6,0.1,0.9c0.4,0.2,0.5,0.7,0.9,1
		c0.1,0.1,0.4,0.3,0.6,0.3c0.6,0,1.2,0,1.8,0c0.6,0,1.3-0.2,1.8-0.6c0.6-0.5,0.7-0.8,0.2-1.5c-0.2-0.4-0.2-0.7,0-1.2
		c0.2,0.2,0.2,0.3,0.4,0.6c0.1-0.2,0.2-0.3,0.3-0.5c0.2,0.1,0.4,0.2,0.4-0.2c0-0.2,0-0.5,0.1-0.7c0.1,0.2,0.2,0.4,0.2,0.7
		c0.3-0.5,0.6-0.9,0.9-1.3c0.1,0.1,0.2,0.1,0.3,0.2c0.1-0.3,0.2-0.6,0.4-1.1c0.1,0.7,0.3,1.3,0.3,1.9c0.1,0.6,0.2,0.9,0.9,0.9
		c0.3,0,0.7-0.1,1,0c0.1,0,0.3,0.1,0.4,0.1c0.5,0.3,1,0.3,1.6,0.2c0.2-0.1,0.4-0.2,0.7-0.4c-0.1,0-0.1,0,0,0c0.3,0.1,0.7,0.2,1-0.1
		c0.2-0.3,0.2-0.6,0-0.9c-0.2-0.4-0.5-0.8-0.1-1.4c0.1,0.2,0.2,0.4,0.3,0.6c0.2,0.5,0.6,0.6,1.1,0.3c0.7,0.9,0.7,0.9,1.3,0.5
		c0.2,0.1,0,0.6,0.5,0.4c0.2-0.1,0.4-0.3,0.6-0.4c0.2,0.5,0.4,0.4,0.7,0.2c0.1-0.1,0.2-0.2,0.4-0.2c0.1,0,0.2,0,0.3,0.1
		c0,0,0,0.1,0,0.2c-0.1,0.4,0.1,0.7,0.3,1.1c0.2-0.2,0.4-0.4,0.6-0.6c0.2,0.3-0.2,1,0.6,0.9c0.2,0.7,0.6,0.9,1,0.9
		c0.2,0.6,0.4,1.1,0.6,1.7c0.1,0.2,0.3,0.3,0.3,0.4c0.1,0.3,0.2,0.6,0.3,1c0,0.1,0,0.1,0,0.2c0.5,1.1,1.6,1.6,2.8,1.2
		c0.1,0,0.3,0,0.4,0c0.8-0.1,1.6-0.1,2.4-0.3c0.5-0.1,0.5-0.4,0.4-0.9c-0.1-0.4-0.3-0.7-0.5-1c-0.4-0.5-0.6-1.2-0.2-1.9
		c0.2,0.1,0.4,0.3,0.6,0.4c0.8,0.6,1.7,0.4,2.6,0.3c0.7-0.1,1.2-0.4,1.7-0.7c0.1-0.1,0.4,0,0.5,0c0.1,0,0.3-0.1,0.3-0.2
		c0-0.7-0.3-1.3-0.8-1.8c-0.1-0.1-0.4-0.1-0.6-0.1c-0.4,0-0.7-0.2-0.7-0.6c-0.1-1-0.1-1.9-0.1-2.9c0-0.1,0.1-0.2,0.1-0.4
		c0,0,0.1,0,0.1,0c0,0.1,0,0.2,0,0.4c0,0.1,0.1,0.2,0.1,0.2c0.1-0.1,0.2-0.1,0.2-0.2c0.1-0.3,0.2-0.7,0.5-1.1c0,0.1,0,0.1,0.1,0.2
		c0.1,0.1,0.2,0.2,0.2,0.3c0.1-0.2,0.2-0.4,0.2-0.6c0-0.3-0.1-0.5-0.1-0.8c0-0.1,0-0.2,0.2-0.3c0.2,0.2,0.3,0.5,0.5,0.7
		c0.1,0,0.1-0.1,0.2-0.1c-0.1-0.5-0.2-0.9-0.3-1.5c0.2,0.2,0.3,0.3,0.4,0.4c0.1,0,0.1,0.1,0.2,0.1c0-0.1,0-0.2,0-0.3
		c-0.1-0.3-0.2-0.7-0.3-1c0.2,0,0.4,0,0.4,0c0-0.2,0-0.4,0-0.6c0,0,0.2-0.1,0.2-0.2c0-0.4,0.3-0.5,0.6-0.7c0.5-0.2,0.5-0.3,0.4-0.9
		c-0.1-0.3-0.2-0.7-0.4-1c0.5,0.2,0.7,0,0.6-0.5c-0.1-0.5-0.2-1-0.4-1.4c-0.2-0.5-0.5-1-0.7-1.5c-0.1-0.1,0.1-0.3,0.1-0.5
		c0-0.1,0.1-0.3,0.1-0.4c0.1-0.6,0.1-1.2,0.2-1.8c0.1-0.5,0.5-0.7,0.9-0.4c0.5-0.2,0.9-0.5,1.3-0.7c0,0.2,0.1,0.5,0.1,0.7
		c0,0.1,0.2,0.2,0.2,0.3c0.1-0.1,0.1-0.2,0.2-0.4c0-0.1,0-0.2,0.1-0.4c0.1,0.4,0.2,0.7,0.3,1c0.2-0.1,0.3-0.2,0.5-0.4
		c0,0.1,0.1,0.2,0.2,0.4c0.1-0.3,0.2-0.5,0.3-0.7c0,0,0,0.1,0.1,0.1c0.8-0.7,1.5-1.4,2.3-2.1c0,0,0.1,0.1,0.1,0.2
		c0.1,0.1,0.1,0.1,0.3,0.3c0.2-0.5,0.3-0.9,0.5-1.4c0.4-1,0.1-1.9-0.4-2.8c-0.4-0.7-0.9-1.3-1.3-2c-0.1-0.2-0.2-0.4-0.3-0.6
		c-0.1-0.2-0.2-0.3-0.4-0.4c0.2,0,0.3-0.1,0.6-0.1c-0.2-0.3-0.4-0.6-0.6-0.9c0,0,0,0,0.1-0.1c0.3,0.1,0.6,0.2,0.9,0.3
		c-0.1-0.2-0.1-0.4-0.2-0.5c0.2,0.1,0.3,0.2,0.5,0.3c0.3-0.3,0.2-0.6,0-0.9c-0.1-0.2-0.5-0.4-0.2-0.8c0-0.1-0.2-0.4-0.4-0.6
		c0.1,0,0.3-0.1,0.5-0.1c-0.3-0.4-0.6-0.7-0.9-1.1c0.2-0.2,0.2-0.4-0.2-0.4c0-0.1,0.1-0.1,0.1-0.1c0.2-0.1,0.3-0.1,0.5-0.1
		c-0.1-0.1-0.3-0.2-0.4-0.3c-0.2-0.2-0.5-0.4-0.7-0.6c-0.1-0.1-0.2-0.3-0.3-0.3c-0.3-0.1-0.4-0.3-0.2-0.6c0.6-1.4,0.7-2.7,0-4.2
		c-1.1,1.1-2.7,1.5-3.4,3.2c-0.2-0.3-0.4-0.5-0.6-0.7c0,0-0.1,0-0.1,0c0,0.3,0.1,0.5,0.1,0.8c0,0.1,0,0.2,0,0.3c0,0-0.2,0-0.2,0
		c-0.3-0.2-0.5-0.3-0.8-0.6c-0.1,0.2-0.1,0.4-0.2,0.7c-0.1-0.2-0.2-0.4-0.3-0.6c0,0.1-0.1,0.1-0.1,0.2c-0.2,0-0.4,0-0.7,0
		c-0.2,0.5-0.7,0.2-1.1,0.2c-0.2,0-0.4-0.4-0.5-0.7c-0.2-0.3-0.3-0.7-0.5-1c-0.1-0.3-0.4-0.4-0.7-0.1c-0.3,0.3-0.7,0.5-0.9,0.9
		c-0.5,0.9-1.1,1.8-1.4,2.8c-0.2,0.6-0.5,1-0.9,1.4c-0.4,0.5-0.7,1-1.1,1.6c-0.1,0.1-0.2,0.2-0.2,0.3c-0.1,0.2-0.5,0.3-0.3,0.7
		c0,0,0,0.1-0.1,0.1c-0.4,0.4-0.4,1-0.6,1.5c-0.4,1.1-1.1,2.1-1.9,2.9c-0.5,0.4-1.1,0.6-1.7,0.7c-0.7,0.1-1.3,0.3-2,0.4
		c-0.5,0.1-1,0.2-1.4,0.6c-0.1,0.1-0.3,0.2-0.5,0.2c-0.4,0.1-0.8,0.1-1.1,0.2c-0.8,0.1-1.7,0.2-2.5,0.2c-1,0.1-2,0.1-3.1,0.1
		c-1.5-0.1-2.9-0.6-4.2-1.5c-1.4-1-2.3-2.4-3.2-3.8c-0.6-1-1.3-1.9-2.3-2.5c-0.4-0.2-0.8-0.3-1.2-0.3c-0.2-0.1-0.3,0.1-0.4,0.3
		c-0.3,0.8-0.2,1.6,0.3,2.3c-0.5,0.3-0.6,0.5-0.2,1c0.1,0.2,0.2,0.3,0.3,0.5c0.3,0.5,0.6,1,0.9,1.5c0,0-0.1,0.1-0.2,0.2
		c-0.3,0.3-0.4,0.5-0.1,0.9c0.2,0.3,0.3,0.7,0.4,1c0.1,0.1,0.2,0.2,0.3,0.3c0.1,0.1,0.2,0.1,0.4,0.1c-0.3,0.2-0.5,0.3-0.8,0.5
		c0.3,0.3,0.6,0.5,0.8,0.7c0.2,0.2,0.3,0.3,0.4,0.5c0.3,0.7,0.5,1.4,0.7,2.2c0,0.1-0.1,0.3-0.2,0.5C102.9,47.5,102.5,48.1,102,48.8z
		"/>
</g>
<path fill="#FFFFFF" d="M151.2,34.1c0,0,3-0.4,3.9-0.5c0.9-0.1,1.4-0.6,2-1c0.6-0.4,2.4-2.2,2.5-1c0.1,1.2-0.4,4.1-0.3,4.6
	c0.2,0.6,0.8,1.2,0.7,1.7c-0.1,0.4,0.3-0.4,2.4-1.1c2-0.7,7.1-2,16.6-1.6c0,0,1.6,0.2,2.6-0.7c1-0.8,3.5-2.6,2.2-4.7
	c-1.3-2.1-3.6-0.7-3.6,0.7c0,1.4-1.7,0.9-1.6-0.5c0.1-1.4,0.1-3.4,2.3-4.2c2.2-0.8,4.5,0.3,5.8,2.6c1.3,2.3,1.3,6-3.5,9.9
	c0,0,1,4.1-0.1,8.3c-1.1,4.1-1.7,4.5-1.7,5.8c0,1.3,0.5,9.6-1.4,12.2c0,0-0.9,1.5-2.9,1.4c-1.9-0.1-1.4-1.8-0.3-2.2
	c1.1-0.4,1.5-2.6,1.5-2.8c0-0.2-0.3-1.4-0.3-1.4s-0.4,1.9-1.7,3.6c-1.3,1.8-1.7,2.4-3.1,2.3c-1.4-0.1-2.1-0.8-1.2-1.8
	c0.8-1.1,1.2-0.4,1.7-1.1c0.5-0.6,1.7-2.6,1.3-3.6c-0.4-1-1.9-4.1-1.9-4.1s-5.8,0-8.2,0.1c0,0,0.1,3.5-0.4,6.2
	c-0.5,2.7-0.8,2.8-0.3,5.6c0.5,2.8-0.5,3.3-2.7,3.1c-2.2-0.2-0.7-1.5-0.7-3.2c0-1.7-0.1-8.1-0.5-8.4c-0.4-0.3-0.8,3.7-0.7,6.5
	c0.1,2.8-0.2,3.9-1.1,4.1c-0.9,0.3-3,0.5-3.2-0.6c-0.2-1.1,1.2-1.4,1.6-1.9c0.4-0.5,0.4-2.1-0.2-3.4c-0.6-1.3-0.5-3.8-1.4-6.2
	c-0.9-2.4-3.6-7.8-4.1-9.2c-0.5-1.5-0.4-3-0.8-3.9c-0.4-0.9-2.1-3-2.3-3.9c-0.2-0.9,0.3-2.2-0.3-3c-0.6-0.8-1.8-4.1-0.4-4.1
	C148.9,32.8,149.9,34,151.2,34.1z"/>
<g>
	<path fill="#FFFFFF" d="M194.9,48.8c0.3,0,0.4,0,0.5,0c0.1,0.4-0.6,0.8,0,1.2c-0.5,1.1-1.1,2-2,2.8c-0.4,0.4-0.7,1-0.8,1.6
		c-0.1,0.5-0.4,0.9-0.6,1.4c-0.1,0.2-0.1,0.5-0.2,0.9c0.3-0.2,0.6-0.2,0.8-0.4c0,0.2-0.1,0.4-0.1,0.5c0,0.1,0,0.2,0.1,0.4
		c0,0.2,0.1,0.3,0.1,0.5c-0.3,0.9-0.6,1.9-0.8,2.8c0,0.1-0.1,0.2-0.2,0.4c0.2,0,0.3,0.1,0.5,0.1c-0.5,0.4-0.6,0.9-0.4,1.5
		c0.5-0.2,0.5-1,1-1.1c0.2,0.5-0.6,1.1,0,1.6c0,0.1-0.1,0.2-0.1,0.3c0,0,0,0.1,0.1,0.1c0.2-0.1,0.4-0.2,0.7-0.3
		c-0.1,0.5-0.3,1-0.4,1.5c0.4,0,0.8-0.1,1.1-0.1c0,0,0,0,0,0c-0.2,0.3-0.3,0.6,0.1,0.9c0.4,0.2,0.5,0.7,0.9,1
		c0.1,0.1,0.4,0.3,0.6,0.3c0.6,0,1.2,0,1.8,0c0.6,0,1.3-0.2,1.8-0.6c0.6-0.5,0.7-0.8,0.2-1.5c-0.2-0.4-0.2-0.7,0-1.2
		c0.2,0.2,0.2,0.3,0.4,0.6c0.1-0.2,0.2-0.3,0.3-0.5c0.2,0.1,0.4,0.2,0.4-0.2c0-0.2,0-0.5,0.1-0.7c0.1,0.2,0.2,0.4,0.2,0.7
		c0.3-0.5,0.6-0.9,0.9-1.3c0.1,0.1,0.2,0.1,0.3,0.2c0.1-0.3,0.2-0.6,0.4-1.1c0.1,0.7,0.3,1.3,0.3,1.9c0.1,0.6,0.2,0.9,0.9,0.9
		c0.3,0,0.7-0.1,1,0c0.1,0,0.3,0.1,0.4,0.1c0.5,0.3,1,0.3,1.6,0.2c0.2-0.1,0.4-0.2,0.7-0.4c-0.1,0-0.1,0,0,0c0.3,0.1,0.7,0.2,1-0.1
		c0.2-0.3,0.2-0.6,0-0.9c-0.2-0.4-0.5-0.8-0.1-1.4c0.1,0.2,0.2,0.4,0.3,0.6c0.2,0.5,0.6,0.6,1.1,0.3c0.7,0.9,0.7,0.9,1.3,0.5
		c0.2,0.1,0,0.6,0.5,0.4c0.2-0.1,0.4-0.3,0.6-0.4c0.2,0.5,0.4,0.4,0.7,0.2c0.1-0.1,0.2-0.2,0.4-0.2c0.1,0,0.2,0,0.3,0.1
		c0,0,0,0.1,0,0.2c-0.1,0.4,0.1,0.7,0.3,1.1c0.2-0.2,0.4-0.4,0.6-0.6c0.2,0.3-0.2,1,0.6,0.9c0.2,0.7,0.6,0.9,1,0.9
		c0.2,0.6,0.4,1.1,0.6,1.7c0.1,0.2,0.3,0.3,0.3,0.4c0.1,0.3,0.2,0.6,0.3,1c0,0.1,0,0.1,0,0.2c0.5,1.1,1.6,1.6,2.8,1.2
		c0.1,0,0.3,0,0.4,0c0.8-0.1,1.6-0.1,2.4-0.3c0.5-0.1,0.5-0.4,0.4-0.9c-0.1-0.4-0.3-0.7-0.5-1c-0.4-0.5-0.6-1.2-0.2-1.9
		c0.2,0.1,0.4,0.3,0.6,0.4c0.8,0.6,1.7,0.4,2.6,0.3c0.7-0.1,1.2-0.4,1.7-0.7c0.1-0.1,0.4,0,0.5,0c0.1,0,0.3-0.1,0.3-0.2
		c0-0.7-0.3-1.3-0.8-1.8c-0.1-0.1-0.4-0.1-0.6-0.1c-0.4,0-0.7-0.2-0.7-0.6c-0.1-1-0.1-1.9-0.1-2.9c0-0.1,0.1-0.2,0.1-0.4
		c0,0,0.1,0,0.1,0c0,0.1,0,0.2,0,0.4c0,0.1,0.1,0.2,0.1,0.2c0.1-0.1,0.2-0.1,0.2-0.2c0.1-0.3,0.2-0.7,0.5-1.1c0,0.1,0,0.1,0.1,0.2
		c0.1,0.1,0.2,0.2,0.2,0.3c0.1-0.2,0.2-0.4,0.2-0.6c0-0.3-0.1-0.5-0.1-0.8c0-0.1,0-0.2,0.2-0.3c0.2,0.2,0.3,0.5,0.5,0.7
		c0.1,0,0.1-0.1,0.2-0.1c-0.1-0.5-0.2-0.9-0.3-1.5c0.2,0.2,0.3,0.3,0.4,0.4c0.1,0,0.1,0.1,0.2,0.1c0-0.1,0-0.2,0-0.3
		c-0.1-0.3-0.2-0.7-0.3-1c0.2,0,0.4,0,0.4,0c0-0.2,0-0.4,0-0.6c0,0,0.2-0.1,0.2-0.2c0-0.4,0.3-0.5,0.6-0.7c0.5-0.2,0.5-0.3,0.4-0.9
		c-0.1-0.3-0.2-0.7-0.4-1c0.5,0.2,0.7,0,0.6-0.5c-0.1-0.5-0.2-1-0.4-1.4c-0.2-0.5-0.5-1-0.7-1.5c-0.1-0.1,0.1-0.3,0.1-0.5
		c0-0.1,0.1-0.3,0.1-0.4c0.1-0.6,0.1-1.2,0.2-1.8c0.1-0.5,0.5-0.7,0.9-0.4c0.5-0.2,0.9-0.5,1.3-0.7c0,0.2,0.1,0.5,0.1,0.7
		c0,0.1,0.2,0.2,0.2,0.3c0.1-0.1,0.1-0.2,0.2-0.4c0-0.1,0-0.2,0.1-0.4c0.1,0.4,0.2,0.7,0.3,1c0.2-0.1,0.3-0.2,0.5-0.4
		c0,0.1,0.1,0.2,0.2,0.4c0.1-0.3,0.2-0.5,0.3-0.7c0,0,0,0.1,0.1,0.1c0.8-0.7,1.5-1.4,2.3-2.1c0,0,0.1,0.1,0.1,0.2
		c0.1,0.1,0.1,0.1,0.3,0.3c0.2-0.5,0.3-0.9,0.5-1.4c0.4-1,0.1-1.9-0.4-2.8c-0.4-0.7-0.9-1.3-1.3-2c-0.1-0.2-0.2-0.4-0.3-0.6
		c-0.1-0.2-0.2-0.3-0.4-0.4c0.2,0,0.3-0.1,0.6-0.1c-0.2-0.3-0.4-0.6-0.6-0.9c0,0,0,0,0.1-0.1c0.3,0.1,0.6,0.2,0.9,0.3
		c-0.1-0.2-0.1-0.4-0.2-0.5c0.2,0.1,0.3,0.2,0.5,0.3c0.3-0.3,0.2-0.6,0-0.9c-0.1-0.2-0.5-0.4-0.2-0.8c0-0.1-0.2-0.4-0.4-0.6
		c0.1,0,0.3-0.1,0.5-0.1c-0.3-0.4-0.6-0.7-0.9-1.1c0.2-0.2,0.2-0.4-0.2-0.4c0-0.1,0.1-0.1,0.1-0.1c0.2-0.1,0.3-0.1,0.5-0.1
		c-0.1-0.1-0.3-0.2-0.4-0.3c-0.2-0.2-0.5-0.4-0.7-0.6c-0.1-0.1-0.2-0.3-0.3-0.3c-0.3-0.1-0.4-0.3-0.2-0.6c0.6-1.4,0.7-2.7,0-4.2
		c-1.1,1.1-2.7,1.5-3.4,3.2c-0.2-0.3-0.4-0.5-0.6-0.7c0,0-0.1,0-0.1,0c0,0.3,0.1,0.5,0.1,0.8c0,0.1,0,0.2,0,0.3c0,0-0.2,0-0.2,0
		c-0.3-0.2-0.5-0.3-0.8-0.6c-0.1,0.2-0.1,0.4-0.2,0.7c-0.1-0.2-0.2-0.4-0.3-0.6c0,0.1-0.1,0.1-0.1,0.2c-0.2,0-0.4,0-0.7,0
		c-0.2,0.5-0.7,0.2-1.1,0.2c-0.2,0-0.4-0.4-0.5-0.7c-0.2-0.3-0.3-0.7-0.5-1c-0.1-0.3-0.4-0.4-0.7-0.1c-0.3,0.3-0.7,0.5-0.9,0.9
		c-0.5,0.9-1.1,1.8-1.4,2.8c-0.2,0.6-0.5,1-0.9,1.4c-0.4,0.5-0.7,1-1.1,1.6c-0.1,0.1-0.2,0.2-0.2,0.3c-0.1,0.2-0.5,0.3-0.3,0.7
		c0,0,0,0.1-0.1,0.1c-0.4,0.4-0.4,1-0.6,1.5c-0.4,1.1-1.1,2.1-1.9,2.9c-0.5,0.4-1.1,0.6-1.7,0.7c-0.7,0.1-1.3,0.3-2,0.4
		c-0.5,0.1-1,0.2-1.4,0.6c-0.1,0.1-0.3,0.2-0.5,0.2c-0.4,0.1-0.8,0.1-1.1,0.2c-0.8,0.1-1.7,0.2-2.5,0.2c-1,0.1-2,0.1-3.1,0.1
		c-1.5-0.1-2.9-0.6-4.2-1.5c-1.4-1-2.3-2.4-3.2-3.8c-0.6-1-1.3-1.9-2.3-2.5c-0.4-0.2-0.8-0.3-1.2-0.3c-0.2-0.1-0.3,0.1-0.4,0.3
		c-0.3,0.8-0.2,1.6,0.3,2.3c-0.5,0.3-0.6,0.5-0.2,1c0.1,0.2,0.2,0.3,0.3,0.5c0.3,0.5,0.6,1,0.9,1.5c0,0-0.1,0.1-0.2,0.2
		c-0.3,0.3-0.4,0.5-0.1,0.9c0.2,0.3,0.3,0.7,0.4,1c0.1,0.1,0.2,0.2,0.3,0.3c0.1,0.1,0.2,0.1,0.4,0.1c-0.3,0.2-0.5,0.3-0.8,0.5
		c0.3,0.3,0.6,0.5,0.8,0.7c0.2,0.2,0.3,0.3,0.4,0.5c0.3,0.7,0.5,1.4,0.7,2.2c0,0.1-0.1,0.3-0.2,0.5
		C195.9,47.5,195.4,48.1,194.9,48.8z"/>
</g>
<path fill="#FFFFFF" d="M244.2,34.1c0,0,3-0.4,3.9-0.5c0.9-0.1,1.4-0.6,2-1c0.6-0.4,2.4-2.2,2.5-1c0.1,1.2-0.4,4.1-0.3,4.6
	c0.2,0.6,0.8,1.2,0.7,1.7c-0.1,0.4,0.3-0.4,2.4-1.1c2-0.7,7.1-2,16.6-1.6c0,0,1.6,0.2,2.6-0.7c1-0.8,3.5-2.6,2.2-4.7
	c-1.3-2.1-3.6-0.7-3.6,0.7c0,1.4-1.7,0.9-1.6-0.5c0.1-1.4,0.1-3.4,2.3-4.2c2.2-0.8,4.5,0.3,5.8,2.6c1.3,2.3,1.3,6-3.5,9.9
	c0,0,1,4.1-0.1,8.3c-1.1,4.1-1.7,4.5-1.7,5.8c0,1.3,0.5,9.6-1.4,12.2c0,0-0.9,1.5-2.9,1.4c-1.9-0.1-1.4-1.8-0.3-2.2
	c1.1-0.4,1.5-2.6,1.5-2.8c0-0.2-0.3-1.4-0.3-1.4s-0.4,1.9-1.7,3.6c-1.3,1.8-1.7,2.4-3.1,2.3c-1.4-0.1-2.1-0.8-1.2-1.8
	c0.8-1.1,1.2-0.4,1.7-1.1c0.5-0.6,1.7-2.6,1.3-3.6c-0.4-1-1.9-4.1-1.9-4.1s-5.8,0-8.2,0.1c0,0,0.1,3.5-0.4,6.2
	c-0.5,2.7-0.8,2.8-0.3,5.6c0.5,2.8-0.5,3.3-2.7,3.1c-2.2-0.2-0.7-1.5-0.7-3.2c0-1.7-0.1-8.1-0.5-8.4c-0.4-0.3-0.8,3.7-0.7,6.5
	c0.1,2.8-0.2,3.9-1.1,4.1c-0.9,0.3-3,0.5-3.2-0.6c-0.2-1.1,1.2-1.4,1.6-1.9c0.4-0.5,0.4-2.1-0.2-3.4c-0.6-1.3-0.5-3.8-1.4-6.2
	c-0.9-2.4-3.6-7.8-4.1-9.2c-0.5-1.5-0.4-3-0.8-3.9c-0.4-0.9-2.1-3-2.3-3.9c-0.2-0.9,0.3-2.2-0.3-3c-0.6-0.8-1.8-4.1-0.4-4.1
	C241.9,32.8,242.9,34,244.2,34.1z"/>
<g>
	<path fill="#FFFFFF" d="M288.9,48.8c0.3,0,0.4,0,0.5,0c0.1,0.4-0.6,0.8,0,1.2c-0.5,1.1-1.1,2-2,2.8c-0.4,0.4-0.7,1-0.8,1.6
		c-0.1,0.5-0.4,0.9-0.6,1.4c-0.1,0.2-0.1,0.5-0.2,0.9c0.3-0.2,0.6-0.2,0.8-0.4c0,0.2-0.1,0.4-0.1,0.5c0,0.1,0,0.2,0.1,0.4
		c0,0.2,0.1,0.3,0.1,0.5c-0.3,0.9-0.6,1.9-0.8,2.8c0,0.1-0.1,0.2-0.2,0.4c0.2,0,0.3,0.1,0.5,0.1c-0.5,0.4-0.6,0.9-0.4,1.5
		c0.5-0.2,0.5-1,1-1.1c0.2,0.5-0.6,1.1,0,1.6c0,0.1-0.1,0.2-0.1,0.3c0,0,0,0.1,0.1,0.1c0.2-0.1,0.4-0.2,0.7-0.3
		c-0.1,0.5-0.3,1-0.4,1.5c0.4,0,0.8-0.1,1.1-0.1c0,0,0,0,0,0c-0.2,0.3-0.3,0.6,0.1,0.9c0.4,0.2,0.5,0.7,0.9,1
		c0.1,0.1,0.4,0.3,0.6,0.3c0.6,0,1.2,0,1.8,0c0.6,0,1.3-0.2,1.8-0.6c0.6-0.5,0.7-0.8,0.2-1.5c-0.2-0.4-0.2-0.7,0-1.2
		c0.2,0.2,0.2,0.3,0.4,0.6c0.1-0.2,0.2-0.3,0.3-0.5c0.2,0.1,0.4,0.2,0.4-0.2c0-0.2,0-0.5,0.1-0.7c0.1,0.2,0.2,0.4,0.2,0.7
		c0.3-0.5,0.6-0.9,0.9-1.3c0.1,0.1,0.2,0.1,0.3,0.2c0.1-0.3,0.2-0.6,0.4-1.1c0.1,0.7,0.3,1.3,0.3,1.9c0.1,0.6,0.2,0.9,0.9,0.9
		c0.3,0,0.7-0.1,1,0c0.1,0,0.3,0.1,0.4,0.1c0.5,0.3,1,0.3,1.6,0.2c0.2-0.1,0.4-0.2,0.7-0.4c-0.1,0-0.1,0,0,0c0.3,0.1,0.7,0.2,1-0.1
		c0.2-0.3,0.2-0.6,0-0.9c-0.2-0.4-0.5-0.8-0.1-1.4c0.1,0.2,0.2,0.4,0.3,0.6c0.2,0.5,0.6,0.6,1.1,0.3c0.7,0.9,0.7,0.9,1.3,0.5
		c0.2,0.1,0,0.6,0.5,0.4c0.2-0.1,0.4-0.3,0.6-0.4c0.2,0.5,0.4,0.4,0.7,0.2c0.1-0.1,0.2-0.2,0.4-0.2c0.1,0,0.2,0,0.3,0.1
		c0,0,0,0.1,0,0.2c-0.1,0.4,0.1,0.7,0.3,1.1c0.2-0.2,0.4-0.4,0.6-0.6c0.2,0.3-0.2,1,0.6,0.9c0.2,0.7,0.6,0.9,1,0.9
		c0.2,0.6,0.4,1.1,0.6,1.7c0.1,0.2,0.3,0.3,0.3,0.4c0.1,0.3,0.2,0.6,0.3,1c0,0.1,0,0.1,0,0.2c0.5,1.1,1.6,1.6,2.8,1.2
		c0.1,0,0.3,0,0.4,0c0.8-0.1,1.6-0.1,2.4-0.3c0.5-0.1,0.5-0.4,0.4-0.9c-0.1-0.4-0.3-0.7-0.5-1c-0.4-0.5-0.6-1.2-0.2-1.9
		c0.2,0.1,0.4,0.3,0.6,0.4c0.8,0.6,1.7,0.4,2.6,0.3c0.7-0.1,1.2-0.4,1.7-0.7c0.1-0.1,0.4,0,0.5,0c0.1,0,0.3-0.1,0.3-0.2
		c0-0.7-0.3-1.3-0.8-1.8c-0.1-0.1-0.4-0.1-0.6-0.1c-0.4,0-0.7-0.2-0.7-0.6c-0.1-1-0.1-1.9-0.1-2.9c0-0.1,0.1-0.2,0.1-0.4
		c0,0,0.1,0,0.1,0c0,0.1,0,0.2,0,0.4c0,0.1,0.1,0.2,0.1,0.2c0.1-0.1,0.2-0.1,0.2-0.2c0.1-0.3,0.2-0.7,0.5-1.1c0,0.1,0,0.1,0.1,0.2
		c0.1,0.1,0.2,0.2,0.2,0.3c0.1-0.2,0.2-0.4,0.2-0.6c0-0.3-0.1-0.5-0.1-0.8c0-0.1,0-0.2,0.2-0.3c0.2,0.2,0.3,0.5,0.5,0.7
		c0.1,0,0.1-0.1,0.2-0.1c-0.1-0.5-0.2-0.9-0.3-1.5c0.2,0.2,0.3,0.3,0.4,0.4c0.1,0,0.1,0.1,0.2,0.1c0-0.1,0-0.2,0-0.3
		c-0.1-0.3-0.2-0.7-0.3-1c0.2,0,0.4,0,0.4,0c0-0.2,0-0.4,0-0.6c0,0,0.2-0.1,0.2-0.2c0-0.4,0.3-0.5,0.6-0.7c0.5-0.2,0.5-0.3,0.4-0.9
		c-0.1-0.3-0.2-0.7-0.4-1c0.5,0.2,0.7,0,0.6-0.5c-0.1-0.5-0.2-1-0.4-1.4c-0.2-0.5-0.5-1-0.7-1.5c-0.1-0.1,0.1-0.3,0.1-0.5
		c0-0.1,0.1-0.3,0.1-0.4c0.1-0.6,0.1-1.2,0.2-1.8c0.1-0.5,0.5-0.7,0.9-0.4c0.5-0.2,0.9-0.5,1.3-0.7c0,0.2,0.1,0.5,0.1,0.7
		c0,0.1,0.2,0.2,0.2,0.3c0.1-0.1,0.1-0.2,0.2-0.4c0-0.1,0-0.2,0.1-0.4c0.1,0.4,0.2,0.7,0.3,1c0.2-0.1,0.3-0.2,0.5-0.4
		c0,0.1,0.1,0.2,0.2,0.4c0.1-0.3,0.2-0.5,0.3-0.7c0,0,0,0.1,0.1,0.1c0.8-0.7,1.5-1.4,2.3-2.1c0,0,0.1,0.1,0.1,0.2
		c0.1,0.1,0.1,0.1,0.3,0.3c0.2-0.5,0.3-0.9,0.5-1.4c0.4-1,0.1-1.9-0.4-2.8c-0.4-0.7-0.9-1.3-1.3-2c-0.1-0.2-0.2-0.4-0.3-0.6
		c-0.1-0.2-0.2-0.3-0.4-0.4c0.2,0,0.3-0.1,0.6-0.1c-0.2-0.3-0.4-0.6-0.6-0.9c0,0,0,0,0.1-0.1c0.3,0.1,0.6,0.2,0.9,0.3
		c-0.1-0.2-0.1-0.4-0.2-0.5c0.2,0.1,0.3,0.2,0.5,0.3c0.3-0.3,0.2-0.6,0-0.9c-0.1-0.2-0.5-0.4-0.2-0.8c0-0.1-0.2-0.4-0.4-0.6
		c0.1,0,0.3-0.1,0.5-0.1c-0.3-0.4-0.6-0.7-0.9-1.1c0.2-0.2,0.2-0.4-0.2-0.4c0-0.1,0.1-0.1,0.1-0.1c0.2-0.1,0.3-0.1,0.5-0.1
		c-0.1-0.1-0.3-0.2-0.4-0.3c-0.2-0.2-0.5-0.4-0.7-0.6c-0.1-0.1-0.2-0.3-0.3-0.3c-0.3-0.1-0.4-0.3-0.2-0.6c0.6-1.4,0.7-2.7,0-4.2
		c-1.1,1.1-2.7,1.5-3.4,3.2c-0.2-0.3-0.4-0.5-0.6-0.7c0,0-0.1,0-0.1,0c0,0.3,0.1,0.5,0.1,0.8c0,0.1,0,0.2,0,0.3c0,0-0.2,0-0.2,0
		c-0.3-0.2-0.5-0.3-0.8-0.6c-0.1,0.2-0.1,0.4-0.2,0.7c-0.1-0.2-0.2-0.4-0.3-0.6c0,0.1-0.1,0.1-0.1,0.2c-0.2,0-0.4,0-0.7,0
		c-0.2,0.5-0.7,0.2-1.1,0.2c-0.2,0-0.4-0.4-0.5-0.7c-0.2-0.3-0.3-0.7-0.5-1c-0.1-0.3-0.4-0.4-0.7-0.1c-0.3,0.3-0.7,0.5-0.9,0.9
		c-0.5,0.9-1.1,1.8-1.4,2.8c-0.2,0.6-0.5,1-0.9,1.4c-0.4,0.5-0.7,1-1.1,1.6c-0.1,0.1-0.2,0.2-0.2,0.3c-0.1,0.2-0.5,0.3-0.3,0.7
		c0,0,0,0.1-0.1,0.1c-0.4,0.4-0.4,1-0.6,1.5c-0.4,1.1-1.1,2.1-1.9,2.9c-0.5,0.4-1.1,0.6-1.7,0.7c-0.7,0.1-1.3,0.3-2,0.4
		c-0.5,0.1-1,0.2-1.4,0.6c-0.1,0.1-0.3,0.2-0.5,0.2c-0.4,0.1-0.8,0.1-1.1,0.2c-0.8,0.1-1.7,0.2-2.5,0.2c-1,0.1-2,0.1-3.1,0.1
		c-1.5-0.1-2.9-0.6-4.2-1.5c-1.4-1-2.3-2.4-3.2-3.8c-0.6-1-1.3-1.9-2.3-2.5c-0.4-0.2-0.8-0.3-1.2-0.3c-0.2-0.1-0.3,0.1-0.4,0.3
		c-0.3,0.8-0.2,1.6,0.3,2.3c-0.5,0.3-0.6,0.5-0.2,1c0.1,0.2,0.2,0.3,0.3,0.5c0.3,0.5,0.6,1,0.9,1.5c0,0-0.1,0.1-0.2,0.2
		c-0.3,0.3-0.4,0.5-0.1,0.9c0.2,0.3,0.3,0.7,0.4,1c0.1,0.1,0.2,0.2,0.3,0.3c0.1,0.1,0.2,0.1,0.4,0.1c-0.3,0.2-0.5,0.3-0.8,0.5
		c0.3,0.3,0.6,0.5,0.8,0.7c0.2,0.2,0.3,0.3,0.4,0.5c0.3,0.7,0.5,1.4,0.7,2.2c0,0.1-0.1,0.3-0.2,0.5
		C289.9,47.5,289.4,48.1,288.9,48.8z"/>
</g>
<path fill="#FFFFFF" d="M338.2,34.1c0,0,3-0.4,3.9-0.5c0.9-0.1,1.4-0.6,2-1c0.6-0.4,2.4-2.2,2.5-1c0.1,1.2-0.4,4.1-0.3,4.6
	c0.2,0.6,0.8,1.2,0.7,1.7c-0.1,0.4,0.3-0.4,2.4-1.1c2-0.7,7.1-2,16.6-1.6c0,0,1.6,0.2,2.6-0.7c1-0.8,3.5-2.6,2.2-4.7
	c-1.3-2.1-3.6-0.7-3.6,0.7c0,1.4-1.7,0.9-1.6-0.5c0.1-1.4,0.1-3.4,2.3-4.2c2.2-0.8,4.5,0.3,5.8,2.6c1.3,2.3,1.3,6-3.5,9.9
	c0,0,1,4.1-0.1,8.3c-1.1,4.1-1.7,4.5-1.7,5.8c0,1.3,0.5,9.6-1.4,12.2c0,0-0.9,1.5-2.9,1.4c-1.9-0.1-1.4-1.8-0.3-2.2
	c1.1-0.4,1.5-2.6,1.5-2.8c0-0.2-0.3-1.4-0.3-1.4s-0.4,1.9-1.7,3.6c-1.3,1.8-1.7,2.4-3.1,2.3c-1.4-0.1-2.1-0.8-1.2-1.8
	c0.8-1.1,1.2-0.4,1.7-1.1c0.5-0.6,1.7-2.6,1.3-3.6c-0.4-1-1.9-4.1-1.9-4.1s-5.8,0-8.2,0.1c0,0,0.1,3.5-0.4,6.2
	c-0.5,2.7-0.8,2.8-0.3,5.6c0.5,2.8-0.5,3.3-2.7,3.1c-2.2-0.2-0.7-1.5-0.7-3.2c0-1.7-0.1-8.1-0.5-8.4c-0.4-0.3-0.8,3.7-0.7,6.5
	c0.1,2.8-0.2,3.9-1.1,4.1c-0.9,0.3-3,0.5-3.2-0.6c-0.2-1.1,1.2-1.4,1.6-1.9c0.4-0.5,0.4-2.1-0.2-3.4c-0.6-1.3-0.5-3.8-1.4-6.2
	c-0.9-2.4-3.6-7.8-4.1-9.2c-0.5-1.5-0.4-3-0.8-3.9c-0.4-0.9-2.1-3-2.3-3.9c-0.2-0.9,0.3-2.2-0.3-3c-0.6-0.8-1.8-4.1-0.4-4.1
	C335.9,32.8,336.9,34,338.2,34.1z"/>
<text transform="matrix(1 0 0 1 0 123.6652)" fill="#FFFFFF" font-family="'Governor'" font-size="57.7591">Pet Factory</text>
<polygon fill="#FFFFFF" points="68.4,21.7 68.4,30.7 44.5,21.7 44.5,30.7 24.5,23.2 24.5,7.2 7.1,7.2 7.1,67.8 20.6,67.8 24.5,67.8 
	44.5,67.8 68.4,67.8 92.2,67.8 92.2,30.7 "/>
</svg>
